<svg aria-hidden="true" style="position: absolute; width: 0; height: 0; overflow: hidden;" version="1.1" xmlns="http://www.w3.org/2000/svg" xmlns:xlink="http://www.w3.org/1999/xlink">
<defs>
<symbol id="icon-cross" viewBox="0 0 32 32">
<path d="M24.707 8.707c0.39-0.391 0.39-1.024 0-1.414s-1.024-0.391-1.414 0l-7.293 7.293-7.293-7.293c-0.391-0.391-1.024-0.391-1.414 0s-0.391 1.024 0 1.414l7.293 7.293-7.293 7.293c-0.391 0.39-0.391 1.024 0 1.414s1.024 0.39 1.414 0l7.293-7.293 7.293 7.293c0.39 0.39 1.024 0.39 1.414 0s0.39-1.024 0-1.414l-7.293-7.293 7.293-7.293z"></path>
</symbol>
<symbol id="icon-checkpoint" viewBox="0 0 32 32">
<path stroke-linejoin="miter" stroke-linecap="butt" stroke-miterlimit="4" stroke-width="2" d="M1 1h30v30h-30v-30z"></path>
<path stroke-linejoin="miter" stroke-linecap="butt" stroke-miterlimit="4" stroke-width="4" d="M7.277 14.301l6.11 6.175 10.998-10.667"></path>
</symbol>
<symbol id="icon-rotated_arrow" viewBox="0 0 55 32">
<path d="M51.363 20.626l-6.445-4.904c-10.581 13.108-28.6 19.127-44.841 14.051-0.56-0.174 2.087-5.716 2.306-6.162 0.313-0.628 2.632-5.85 3.486-5.585 11.762 3.673 25.597 1.388 35.776-5.514l-6.003-4.78 19.188-7.732-3.469 20.626z"></path>
</symbol>
</defs>
</svg>