<svg aria-hidden="true" style="position: absolute; width: 0; height: 0; overflow: hidden;" version="1.1" xmlns="http://www.w3.org/2000/svg" xmlns:xlink="http://www.w3.org/1999/xlink">
<defs>
<symbol id="icon-cross" viewBox="0 0 32 32">
<path d="M24.707 8.707c0.39-0.391 0.39-1.024 0-1.414s-1.024-0.391-1.414 0l-7.293 7.293-7.293-7.293c-0.391-0.391-1.024-0.391-1.414 0s-0.391 1.024 0 1.414l7.293 7.293-7.293 7.293c-0.391 0.39-0.391 1.024 0 1.414s1.024 0.39 1.414 0l7.293-7.293 7.293 7.293c0.39 0.39 1.024 0.39 1.414 0s0.39-1.024 0-1.414l-7.293-7.293 7.293-7.293z"></path>
</symbol>
<symbol id="icon-checkpoint" viewBox="0 0 32 32">
<path stroke-linejoin="miter" stroke-linecap="butt" stroke-miterlimit="4" stroke-width="2" d="M1 1h30v30h-30v-30z"></path>
<path stroke-linejoin="miter" stroke-linecap="butt" stroke-miterlimit="4" stroke-width="4" d="M7.277 14.301l6.11 6.175 10.998-10.667"></path>
</symbol>
<symbol id="icon-rotated_arrow" viewBox="0 0 55 32">
<path d="M51.363 20.626l-6.445-4.904c-10.581 13.108-28.6 19.127-44.841 14.051-0.56-0.174 2.087-5.716 2.306-6.162 0.313-0.628 2.632-5.85 3.486-5.585 11.762 3.673 25.597 1.388 35.776-5.514l-6.003-4.78 19.188-7.732-3.469 20.626z"></path>
</symbol>
<symbol id="icon-logo" viewBox="0 0 107 32">
<path d="M106.667 0v32h-46.933v-32h46.933zM74.555 8.811v13.927c0 0.015 0 0.030 0.001 0.044 0.001 0.029 0.001 0.059-0.001 0.087-0.007 0.080 0.015 0.128 0.107 0.115 0.022-0.002 0.044-0.002 0.066-0.001l0.012 0c0.007 0 0.014 0 0.021 0 0.388 0 0.777 0 1.166 0h0.004c0.777 0 1.555 0.001 2.332-0 0.025 0 0.046 0 0.066 0v0c0.075 0.001 0.111 0.001 0.129-0.017s0.016-0.051 0.014-0.116c-0-0.022-0.001-0.048-0.001-0.078v-13.943c0-0.011-0-0.022-0.001-0.033-0.001-0.022-0.001-0.044 0.001-0.066 0.008-0.082-0.020-0.125-0.108-0.115-0.017 0.002-0.036 0.001-0.054 0.001v0c-0.009-0-0.019-0.001-0.028-0.001-0.392 0-0.785-0-1.178-0h-0c-0.786-0-1.572-0.001-2.357 0-0.023 0-0.044-0-0.062-0.001v0c-0.065-0.001-0.097-0.001-0.113 0.015s-0.016 0.049-0.015 0.116v0c0 0.019 0.001 0.040 0.001 0.064zM94.052 8.617h-5.839c-1.946 0-3.891 0-5.836-0.002-0.015 0-0.030 0-0.044 0h-0c-0.029 0-0.058 0.001-0.087-0-0.066-0.003-0.089 0.028-0.084 0.089 0.001 0.019 0.001 0.036 0 0.054v0c-0 0.009-0 0.018-0 0.028v3.335l-0 0.035v0c-0 0.072-0.001 0.107 0.017 0.124s0.051 0.016 0.117 0.016l0.045-0h3.668c0.12 0 0.179 0 0.208 0.030s0.029 0.086 0.029 0.2v10.282c0 0.020-0 0.037-0.001 0.053v0 0c-0.001 0.059-0.001 0.090 0.014 0.106 0.017 0.017 0.052 0.017 0.126 0.017h0l0.036-0h3.52c0.11 0 0.165 0 0.192-0.027s0.027-0.080 0.027-0.186v-10.282c0-0.022-0-0.042-0.001-0.059-0.001-0.064-0.001-0.097 0.015-0.114 0.018-0.018 0.055-0.018 0.133-0.018l0.049 0h3.734c0.161 0 0.161 0 0.163-0.159v-3.318c0-0.023 0-0.043 0.001-0.061 0.001-0.072 0.001-0.108-0.016-0.126s-0.052-0.017-0.122-0.016v0c-0.018 0-0.039 0.001-0.063 0.001z"></path>
<path d="M46.933 0l12.8 16-12.8 16h-46.933v-32h46.933zM20.752 13.662c0.071 0.058 0.143 0.116 0.215 0.174 0.048-0.029 0.078-0.069 0.106-0.107v0c0.006-0.009 0.013-0.018 0.020-0.026 0.254-0.302 0.507-0.606 0.76-0.91 0.507-0.606 1.012-1.212 1.518-1.82 0.101-0.122 0.097-0.177-0.018-0.276-0.091-0.079-0.183-0.156-0.277-0.233-0.803-0.657-1.685-1.17-2.684-1.467-0.667-0.197-1.349-0.306-2.043-0.353-0.905-0.061-1.802-0.031-2.691 0.174-3.112 0.716-5.434 3.292-5.707 6.594-0.073 0.89-0.003 1.772 0.225 2.638 0.519 1.96 1.645 3.461 3.434 4.45 0.975 0.539 2.030 0.823 3.14 0.912 0.94 0.076 1.87 0.018 2.788-0.189 1.553-0.35 2.925-1.056 4.146-2.067 0.098-0.080 0.137-0.161 0.137-0.289-0.004-1.572-0.004-3.145-0.003-4.717l0-1.179c0-0.020-0.001-0.041-0.003-0.062-0.003-0.046-0.006-0.092 0.006-0.134 0.015-0.049-0.012-0.077-0.037-0.104-0.021-0.022-0.042-0.044-0.039-0.077 0.007-0.054-0.030-0.062-0.073-0.062h-6.556c-0.013 0-0.025 0-0.038 0.001-0.026 0.001-0.052 0.002-0.077-0.001-0.066-0.007-0.087 0.026-0.083 0.087 0.002 0.025 0.002 0.051 0.001 0.077-0 0.013-0.001 0.025-0.001 0.038 0 0.345-0 0.69-0 1.035-0 0.69-0.001 1.38 0 2.070 0 0.028-0.001 0.053-0.001 0.074-0.001 0.063-0.002 0.096 0.014 0.112s0.052 0.017 0.125 0.016h0c0.018-0 0.039-0 0.062-0h2.593c0.023 0 0.043-0 0.061-0 0.072-0.001 0.107-0.001 0.124 0.016 0.016 0.016 0.015 0.048 0.014 0.11-0 0.022-0.001 0.048-0.001 0.078 0.001 0.15 0.001 0.299 0 0.449-0 0.075-0 0.15-0 0.225v0.005c0 0.308 0 0.311-0.279 0.445-0.818 0.391-1.681 0.503-2.573 0.391-0.991-0.123-1.784-0.591-2.365-1.401-0.378-0.527-0.585-1.122-0.662-1.763-0.097-0.818 0.002-1.605 0.373-2.348 0.448-0.892 1.125-1.533 2.098-1.827 0.682-0.207 1.373-0.153 2.056-0.003 0.619 0.135 1.159 0.437 1.657 0.816 0.182 0.138 0.359 0.281 0.539 0.427l0 0zM39.098 10.682c-1.528-1.39-3.348-2.052-5.229-2.066-0.869 0.002-1.518 0.072-2.207 0.251-1.998 0.521-3.563 1.638-4.602 3.422-1.067 1.83-1.283 3.793-0.687 5.812 0.667 2.257 2.089 3.9 4.29 4.815 1.69 0.701 3.44 0.795 5.206 0.332 2.051-0.537 3.624-1.725 4.654-3.578 0.869-1.562 1.102-3.238 0.778-4.987-0.291-1.572-1.017-2.919-2.203-4zM30.661 14.21c0.666-1.227 1.729-1.815 2.762-1.838 2.094-0.005 3.464 1.173 3.837 2.806 0.226 0.984 0.125 1.94-0.358 2.834-0.57 1.050-1.458 1.661-2.654 1.797-1.156 0.133-2.165-0.194-2.99-1.025-0.529-0.532-0.847-1.181-0.983-1.914-0.172-0.928-0.066-1.827 0.386-2.66z"></path>
</symbol>
</defs>
</svg>